<svg width="80" height="80" viewBox="0 0 80 80" fill="none" xmlns="http://www.w3.org/2000/svg">
<circle cx="40" cy="40" r="40" fill="#FEF4E6"/>
<path d="M53.0936 49.3754H51.2502V36.2504C51.2502 35.7531 51.0527 35.2762 50.7011 34.9245C50.3494 34.5729 49.8725 34.3754 49.3752 34.3754H44.219C44.0947 34.3754 43.9754 34.4248 43.8875 34.5127C43.7996 34.6006 43.7502 34.7198 43.7502 34.8441V49.3754H41.8752V28.7984C41.8783 28.5064 41.815 28.2174 41.6899 27.9535C41.5648 27.6895 41.3813 27.4575 41.1534 27.275C40.8426 27.0327 40.4634 26.8945 40.0695 26.8799C39.6757 26.8654 39.2874 26.9754 38.9596 27.1941L29.5846 33.4379C29.3274 33.6095 29.1167 33.842 28.9711 34.1147C28.8255 34.3875 28.7496 34.692 28.7502 35.0011V49.3754H26.9069C26.6646 49.3718 26.43 49.4601 26.2502 49.6225C26.0704 49.7849 25.9587 50.0094 25.9377 50.2508C25.9292 50.379 25.9472 50.5076 25.9904 50.6286C26.0337 50.7496 26.1014 50.8605 26.1894 50.9542C26.2773 51.0479 26.3835 51.1226 26.5015 51.1736C26.6195 51.2245 26.7467 51.2506 26.8752 51.2504H53.1252C53.2537 51.2506 53.381 51.2245 53.4989 51.1736C53.6169 51.1226 53.7232 51.0479 53.8111 50.9542C53.899 50.8605 53.9667 50.7496 54.01 50.6286C54.0533 50.5076 54.0712 50.379 54.0627 50.2508C54.0417 50.0094 53.9301 49.7849 53.7503 49.6225C53.5705 49.4601 53.3359 49.3718 53.0936 49.3754ZM33.9065 46.5629C33.9068 46.6914 33.8806 46.8186 33.8297 46.9366C33.7787 47.0546 33.7041 47.1608 33.6103 47.2487C33.5166 47.3367 33.4057 47.4044 33.2847 47.4477C33.1637 47.4909 33.0351 47.5089 32.9069 47.5004C32.6653 47.4793 32.4406 47.3675 32.2782 47.1875C32.1158 47.0074 32.0276 46.7725 32.0315 46.5301V44.7195C32.0282 44.4773 32.1166 44.2428 32.2789 44.0631C32.4413 43.8833 32.6656 43.7716 32.9069 43.7504C33.0351 43.7418 33.1637 43.7598 33.2847 43.8031C33.4057 43.8464 33.5166 43.9141 33.6103 44.002C33.7041 44.0899 33.7787 44.1962 33.8297 44.3142C33.8806 44.4321 33.9068 44.5593 33.9065 44.6879V46.5629ZM33.9065 40.0004C33.9068 40.1289 33.8806 40.2561 33.8297 40.3741C33.7787 40.4921 33.7041 40.5983 33.6103 40.6862C33.5166 40.7742 33.4057 40.8419 33.2847 40.8852C33.1637 40.9284 33.0351 40.9464 32.9069 40.9379C32.6654 40.9166 32.4409 40.8047 32.2785 40.6247C32.1161 40.4447 32.0279 40.2099 32.0315 39.9676V38.157C32.0282 37.9148 32.1166 37.6803 32.2789 37.5006C32.4413 37.3208 32.6656 37.2091 32.9069 37.1879C33.0351 37.1793 33.1637 37.1973 33.2847 37.2406C33.4057 37.2839 33.5166 37.3516 33.6103 37.4395C33.7041 37.5274 33.7787 37.6337 33.8297 37.7517C33.8806 37.8696 33.9068 37.9968 33.9065 38.1254V40.0004ZM38.594 46.5629C38.5943 46.6914 38.5681 46.8186 38.5172 46.9366C38.4662 47.0546 38.3916 47.1608 38.2978 47.2487C38.2041 47.3367 38.0932 47.4044 37.9722 47.4477C37.8512 47.4909 37.7226 47.5089 37.5944 47.5004C37.3532 47.4794 37.1289 47.3679 36.9665 47.1884C36.8041 47.0088 36.7157 46.7745 36.719 46.5324V44.7195C36.716 44.4775 36.8045 44.2433 36.9668 44.0638C37.1292 43.8843 37.3533 43.7728 37.5944 43.7515C37.7226 43.743 37.8512 43.761 37.9722 43.8043C38.0932 43.8475 38.2041 43.9152 38.2978 44.0032C38.3916 44.0911 38.4662 44.1973 38.5172 44.3153C38.5681 44.4333 38.5943 44.5605 38.594 44.689V46.5629ZM38.594 40.0004C38.5943 40.1289 38.5681 40.2561 38.5172 40.3741C38.4662 40.4921 38.3916 40.5983 38.2978 40.6862C38.2041 40.7742 38.0932 40.8419 37.9722 40.8852C37.8512 40.9284 37.7226 40.9464 37.5944 40.9379C37.3533 40.9166 37.1292 40.8051 36.9668 40.6256C36.8045 40.4461 36.716 40.2119 36.719 39.9699V38.157C36.716 37.915 36.8045 37.6808 36.9668 37.5013C37.1292 37.3218 37.3533 37.2103 37.5944 37.189C37.7226 37.1805 37.8512 37.1985 37.9722 37.2418C38.0932 37.285 38.2041 37.3527 38.2978 37.4407C38.3916 37.5286 38.4662 37.6348 38.5172 37.7528C38.5681 37.8708 38.5943 37.998 38.594 38.1265V40.0004Z" fill="#F58A07"/>
</svg>
