<svg width="173" height="16" viewBox="0 0 173 16" fill="none" xmlns="http://www.w3.org/2000/svg">
<path d="M8.57532 16C3.17519 16 0 12.8464 0 8C0 3.15362 3.17519 0 8.57532 0C13.79 0 16.9189 2.48116 16.9189 6.63188V7.02609H12.0518V6.63188C12.0518 4.86956 11.2174 4.17391 8.64485 4.17391C5.49284 4.17391 4.63531 4.91594 4.63531 8C4.63531 11.0841 5.49284 11.8261 8.64485 11.8261C11.2174 11.8261 12.0518 11.1304 12.0518 9.36812V8.97391H16.9189V9.36812C16.9189 13.5188 13.79 16 8.57532 16Z" fill="white"/>
<path d="M22.6558 15.7681H18.2986V0.231884H27.3606C31.4629 0.231884 33.6183 1.94783 33.6183 4.98551C33.6183 7.44348 32.3899 8.90435 29.4233 9.27536V9.50725C31.0225 9.92464 31.5324 10.6899 32.1118 11.8725L34.0355 15.7681H29.0062L27.152 11.9652C26.5958 10.8058 26.1323 10.4812 24.4404 10.4812H22.6558V15.7681ZM22.6558 4.15072V7.23478H27.3143C28.589 7.23478 29.0525 7.0029 29.0525 5.68116C29.0525 4.45217 28.589 4.15072 27.3143 4.15072H22.6558Z" fill="white"/>
<path d="M43.3289 16C37.9288 16 34.7304 12.8464 34.7304 8C34.7304 3.15362 37.9288 0 43.3289 0C48.8681 0 52.0201 3.15362 52.0201 8C52.0201 12.8464 48.8681 16 43.3289 16ZM43.3289 11.8261C46.4809 11.8261 47.3848 11.0841 47.3848 8C47.3848 4.91594 46.4809 4.17391 43.3289 4.17391C40.1769 4.17391 39.3657 4.91594 39.3657 8C39.3657 11.0841 40.1769 11.8261 43.3289 11.8261Z" fill="white"/>
<path d="M58.1881 15.7681H52.4867L58.3504 8.13913V7.83768L52.4867 0.231884H58.1881L61.9427 5.26377H62.244L65.79 0.231884H71.4915L65.651 7.93043V8.23188L71.4915 15.7681H65.79L62.0586 10.713H61.7573L58.1881 15.7681Z" fill="white"/>
<path d="M90.1891 15.7681H88.5436V1.73913H82.1469V0.231884H96.5627V1.73913H90.1891V15.7681Z" fill="white"/>
<path d="M98.9627 15.7681H97.155L104.177 0.231884H106.472L113.518 15.7681H111.663L109.578 11.2H101.049L98.9627 15.7681ZM104.386 3.82609L101.721 9.71594H108.905L106.217 3.82609L105.359 1.80869H105.22L104.386 3.82609Z" fill="white"/>
<path d="M126.747 15.7681H115.252V0.231884H116.897V14.2609H126.747V15.7681Z" fill="white"/>
<path d="M140.634 15.7681H128.837V0.231884H140.634V1.73913H130.483V7.21159H140.286V8.69565H130.483V14.2609H140.634V15.7681Z" fill="white"/>
<path d="M144.815 15.7681H143.169V0.231884H144.977L153.112 10.7826L154.989 13.3797H155.129L155.082 10.829V0.231884H156.728V15.7681H154.92L146.831 5.33333L144.885 2.71304H144.769L144.815 5.31014V15.7681Z" fill="white"/>
<path d="M166.626 15.7681H164.981V1.73913H158.584V0.231884H173V1.73913H166.626V15.7681Z" fill="white"/>
<path d="M73.7014 0.115942L67.9073 8.3942L73.7014 15.7681H79.4955L73.4155 8.69565V8.3942L79.4955 0.115942H73.7014Z" fill="#FF8F36"/>
</svg>
