  <svg
    xmlns="http://www.w3.org/2000/svg"
    width="186"
    height="40"
    viewBox="0 0 186 40"
    fill="none"
  >
    <path
      d="M0.00366211 19.9234C0.105035 19.991 0.252869 20.0332 0.30778 20.1262C1.06601 21.4078 1.88933 22.6499 2.77451 23.8474C2.77451 23.8474 2.77451 23.8938 2.79985 23.9783L2.33523 24.3458C2.19162 24.143 2.0649 23.9868 1.96353 23.8178C1.32952 22.7283 0.765213 21.5996 0.273989 20.4387C0.194256 20.2603 0.103988 20.0869 0.00366211 19.9192L0.00366211 19.9234Z"
      fill="white"
    />
    <path
      d="M29.7177 35.6908C29.7429 35.5477 29.7781 35.4066 29.8232 35.2685C30.333 34.0268 30.7729 32.7577 31.1411 31.467C31.1888 31.338 31.2452 31.2124 31.31 31.0911L31.7916 31.2347C31.7916 31.336 31.8465 31.3952 31.8296 31.4332C31.6226 31.957 31.4368 32.4934 31.196 33.0002C30.837 33.7394 30.4484 34.4617 30.0556 35.184C29.9487 35.3563 29.8287 35.5201 29.6965 35.6739L29.7177 35.6908Z"
      fill="white"
    />
    <path
      d="M28.8906 3.51485C28.7373 3.52551 28.5834 3.52551 28.4302 3.51485C27.1172 3.27196 25.7916 3.10275 24.4597 3.00798C24.3169 2.99118 24.1757 2.96293 24.0374 2.92351L24.0838 2.42087C24.1767 2.37863 24.2232 2.33639 24.2654 2.34484C24.823 2.43776 25.3848 2.50534 25.9296 2.64051C26.7279 2.8348 27.5178 3.06289 28.3034 3.29943C28.495 3.36738 28.6802 3.45219 28.8568 3.55286L28.8906 3.51485Z"
      fill="white"
    />
    <path
      d="M21.4263 7.16419L21.3162 7.10913L21.4013 7.18922L21.4263 7.16419Z"
      fill="white"
    />
    <path
      d="M0.00364392 19.9398L0.0386841 19.8147L0.00364392 19.8597C-0.00121464 19.8845 -0.00121464 19.91 0.00364392 19.9348L0.00364392 19.9398Z"
      fill="white"
    />
    <path
      d="M29.709 35.6753L29.634 35.8004C29.6311 35.7788 29.6311 35.757 29.634 35.7354C29.6608 35.719 29.6894 35.7056 29.7191 35.6953L29.709 35.6753Z"
      fill="white"
    />
    <path
      d="M4.65002 29.8838C6.14999 29.8838 7.36596 28.6678 7.36596 27.1678C7.36596 25.6679 6.14999 24.4519 4.65002 24.4519C3.15005 24.4519 1.93408 25.6679 1.93408 27.1678C1.93408 28.6678 3.15005 29.8838 4.65002 29.8838Z"
      fill="white"
    />
    <path
      d="M32.9027 30.9695C34.4027 30.9695 35.6186 29.7535 35.6186 28.2535C35.6186 26.7536 34.4027 25.5376 32.9027 25.5376C31.4027 25.5376 30.1868 26.7536 30.1868 28.2535C30.1868 29.7535 31.4027 30.9695 32.9027 30.9695Z"
      fill="white"
    />
    <path
      d="M19.8595 5.43187C21.3595 5.43187 22.5754 4.21591 22.5754 2.71594C22.5754 1.21597 21.3595 0 19.8595 0C18.3595 0 17.1436 1.21597 17.1436 2.71594C17.1436 4.21591 18.3595 5.43187 19.8595 5.43187Z"
      fill="white"
    />
    <path
      d="M21.3884 7.18422L21.4238 7.23478C21.4238 7.2095 21.4238 7.18422 21.4238 7.15894L21.3884 7.18422Z"
      fill="white"
    />
    <path
      d="M37.2318 12.0671C36.6869 9.57929 35.2635 7.86863 32.8052 7.09566C32.1404 6.89867 31.4537 6.78517 30.7608 6.75775C29.3441 6.68914 27.9262 6.86781 26.5708 7.28573C25.5866 7.58563 24.6236 7.94043 23.6606 8.29101C23.1819 8.49318 22.6534 8.54618 22.1442 8.44307L21.4135 7.22238C21.4281 7.40254 21.4535 7.58166 21.4895 7.75881C21.5486 8.00801 21.6373 8.253 21.7134 8.49798C21.7554 8.60727 21.7617 8.72707 21.7314 8.84017C21.701 8.95326 21.6355 9.0538 21.5444 9.12733C21.3042 9.35863 21.0426 9.56653 20.763 9.74824C17.1908 11.996 13.9843 14.778 11.2551 17.9974C10.8327 18.5043 10.3681 19.0027 9.9246 19.4927C9.81341 19.5978 9.69168 19.6912 9.56135 19.7714C9.46794 19.709 9.38029 19.6383 9.29948 19.5603C8.72503 18.9056 8.13792 18.2551 7.57192 17.5877C7.03767 16.9533 6.60325 16.2411 6.28365 15.4758C5.90375 14.6431 5.70714 13.7385 5.70714 12.8232C5.70714 11.9079 5.90375 11.0033 6.28365 10.1706C6.89707 8.85255 7.92312 7.77016 9.20655 7.08721C9.90691 6.70752 10.6274 6.36629 11.3649 6.06504C12.6025 5.5624 13.857 5.1189 15.1073 4.63738C15.3649 4.54023 15.6648 4.51911 15.8464 4.21499C15.8551 3.87437 15.7812 3.53671 15.631 3.23084L15.5043 3.20972V3.2604C7.75777 4.22767 4.5223 6.85068 3.18334 8.81899V8.7852C2.54911 9.68831 2.12831 10.7237 1.9527 11.8132C1.7771 12.9027 1.85127 14.0179 2.16962 15.0745C2.24143 15.3322 2.3259 15.5983 2.42728 15.8644L2.5371 16.1347C2.83953 16.8609 3.23879 17.5429 3.724 18.1622V18.1157C4.04823 18.5247 4.40872 18.9035 4.80108 19.2477C5.54942 20.0659 6.37241 20.8125 7.25936 21.4779C7.4621 21.6342 7.71131 21.7398 7.80846 21.9974C7.77467 22.4198 7.38607 22.707 7.33539 23.2181C7.49589 23.0576 7.58037 22.9605 7.66907 22.8633L7.9225 22.5803C7.96327 22.5216 8.01546 22.4717 8.07594 22.4336C8.13642 22.3955 8.20396 22.3699 8.27453 22.3585C8.34509 22.3471 8.41723 22.35 8.48665 22.367C8.55607 22.3841 8.62134 22.415 8.67857 22.4578C8.81373 22.5212 8.94045 22.6141 9.07561 22.6901C10.5873 23.6233 12.2053 24.372 13.895 24.9203C15.6606 25.4567 17.4431 25.9594 19.2297 26.4156C20.6194 26.7788 22.0344 27.0407 23.4536 27.3448C23.6775 27.3955 23.9182 27.4039 24.066 27.6151C24.0752 27.6654 24.0752 27.7169 24.066 27.7672C23.5592 29.0048 23.0692 30.2424 22.5328 31.4673C22.1967 32.1728 21.7424 32.8156 21.1896 33.368C20.3931 34.2464 19.3309 34.8399 18.1653 35.0576C17.2472 35.2079 16.3068 35.1472 15.4156 34.8802C13.5778 34.3696 11.8766 33.4563 10.4357 32.2065C9.6754 31.556 8.932 30.8802 8.17593 30.2255C7.97814 29.9938 7.72337 29.8176 7.43676 29.7144C7.06687 29.9454 6.742 30.2417 6.47794 30.5887C6.82008 31.0111 7.15376 31.4335 7.49167 31.8559C8.61638 33.2635 9.85383 34.5773 11.1918 35.7841C12.6435 37.0847 14.3194 38.1109 16.1379 38.8126H16.1759C16.3748 38.828 16.5673 38.8903 16.7377 38.9942C17.8012 39.2979 18.9214 39.3456 20.0069 39.1336C21.4546 38.8359 22.7486 38.0317 23.6563 36.8654C24.3739 35.9821 24.934 34.982 25.3121 33.9087C25.9542 32.2388 26.391 30.4971 26.613 28.7218C26.6194 28.3858 26.6867 28.0538 26.8115 27.7419C27.2677 27.556 27.7746 27.7419 28.387 27.5264L27.8802 27.4039C27.6774 27.3659 27.4578 27.3321 27.2762 27.2899C27.1579 27.2725 27.0499 27.2129 26.9723 27.122C26.8946 27.0312 26.8525 26.9152 26.8538 26.7957C26.8538 26.6437 26.8538 26.4874 26.8538 26.3353C26.7946 25.5412 26.7693 24.7429 26.6595 23.9531C26.4325 22.2724 26.1124 20.6056 25.7007 18.9605C25.1262 16.6711 24.5138 14.3903 23.914 12.1052C23.8021 11.8176 23.7545 11.5091 23.7746 11.2012C23.8625 11.1418 23.9558 11.0909 24.0534 11.0492C25.3781 10.5473 26.7897 10.3147 28.2054 10.3649C31.1621 10.5297 33.5697 12.2572 34.3511 15.3998C34.6521 16.8105 34.6794 18.2659 34.4314 19.687C34.2356 21.114 33.8873 22.5159 33.3923 23.8686C33.3332 24.0249 33.3163 24.198 33.2656 24.3923C33.7639 24.5747 34.2894 24.6718 34.82 24.6796C34.9129 24.4768 35.01 24.2952 35.0861 24.1136C35.5084 22.9605 35.9942 21.82 36.3786 20.6458C37.0331 18.7733 37.3853 16.8086 37.4218 14.8253C37.4621 13.9017 37.3984 12.9765 37.2318 12.0671ZM24.1378 18.8253C24.4187 21.1753 24.4187 23.5503 24.1378 25.9003C24.0996 26.1153 24.0503 26.3281 23.99 26.5381C23.7831 26.5192 23.5772 26.4896 23.3733 26.4494C18.9667 25.3215 14.7911 23.4317 11.0355 20.8654C10.8032 20.7134 10.592 20.5233 10.3723 20.3459C10.3428 20.3205 10.3385 20.253 10.309 20.1812C10.3788 20.0833 10.455 19.9902 10.5371 19.9024C12.74 17.7117 15.1536 15.7437 17.7429 14.027C19.0885 13.1674 20.501 12.4173 21.9668 11.7841C22.1907 11.687 22.4145 11.5138 22.7313 11.6236C22.9424 12.2401 23.102 12.8731 23.2086 13.5159C23.6127 15.2707 23.9229 17.0459 24.1378 18.8337V18.8253Z"
      fill="white"
    />
    <path
      d="M2.43588 15.8646C2.33451 15.5985 2.25003 15.3324 2.17822 15.0747L2.20779 15.1001C2.26411 15.3604 2.34036 15.616 2.43588 15.8646Z"
      fill="white"
    />
    <path
      d="M53.4467 27.2184C52.5662 27.1974 51.6906 27.0784 50.8364 26.8636C50.0051 26.6539 49.2239 26.2806 48.5386 25.7654C47.8487 25.2627 47.2836 24.608 46.8871 23.852C46.4354 22.865 46.2449 21.7786 46.3338 20.6968C46.4577 18.4751 47.4658 16.8728 49.3581 15.8901C50.6562 15.2002 52.3457 14.9425 54.4267 15.1171C55.7375 15.1877 56.9964 15.6529 58.0381 16.4518C58.4329 16.7879 58.7721 17.1842 59.0433 17.6261C59.0704 17.661 59.0902 17.701 59.1014 17.7438C59.1127 17.7865 59.1153 17.8311 59.109 17.8748C59.1027 17.9186 59.0876 17.9606 59.0647 17.9984C59.0419 18.0362 59.0116 18.069 58.9758 18.0949C58.8659 18.1709 58.6547 18.3483 58.3422 18.6229C58.0296 18.8974 57.7382 19.1424 57.4721 19.3578C57.296 19.513 57.1082 19.6542 56.9103 19.7802C56.7878 19.8605 56.5977 19.7591 56.3485 19.4761C55.9819 19.0287 55.5203 18.6685 54.9972 18.4215C54.4742 18.1746 53.9027 18.0472 53.3242 18.0484C52.9455 18.0489 52.5681 18.0957 52.2007 18.1878C51.8009 18.2662 51.4275 18.4449 51.1157 18.7072C50.8039 18.9695 50.5639 19.3068 50.4182 19.6873C50.2323 20.1504 50.1406 20.646 50.1486 21.145C50.1565 21.644 50.264 22.1364 50.4647 22.5933C50.5991 22.9457 50.8194 23.259 51.1056 23.5046C51.3918 23.7502 51.7348 23.9205 52.1036 23.9999C52.9698 24.2697 53.8999 24.2534 54.7561 23.9534C55.4243 23.6388 55.9918 23.1445 56.395 22.5257C56.4879 22.3821 56.5639 22.3103 56.6189 22.3019C56.6738 22.2934 56.7625 22.3441 56.8892 22.4539C57.0159 22.5637 57.7002 23.1128 59.0433 24.1899C59.0942 24.2314 59.1276 24.2904 59.137 24.3553C59.1463 24.4203 59.131 24.4863 59.094 24.5405C58.853 24.8973 58.5936 25.2413 58.3168 25.5711C58.0551 25.8573 57.7552 26.106 57.4256 26.3103C57.0005 26.5833 56.5341 26.7858 56.0444 26.9101C55.1991 27.1436 54.3232 27.2476 53.4467 27.2184Z"
      fill="white"
    />
    <path
      d="M61.0122 16.1137V15.8561C61.0122 15.6069 61.046 15.4337 61.1178 15.3872C61.2638 15.3084 61.4303 15.276 61.5951 15.2943H61.7134H63.0143H64.5265C64.9826 15.2943 65.4092 15.2943 65.8147 15.3154C66.8346 15.3241 67.8514 15.4288 68.8517 15.628C69.4157 15.7369 69.9457 15.9788 70.3976 16.3334C70.7223 16.5805 70.9846 16.9003 71.1636 17.267C71.3425 17.6337 71.4332 18.0372 71.4282 18.4453C71.4412 18.9328 71.4101 19.4206 71.3353 19.9025C71.2444 20.3326 71.0431 20.7316 70.7514 21.0604C70.4596 21.3892 70.0873 21.6365 69.6711 21.7779L69.2698 21.9046C69.15 21.9398 69.0328 21.9836 68.9193 22.0356C68.7968 22.0651 68.7714 22.1369 68.8517 22.2468C69.1023 22.6044 69.4881 23.1436 70.009 23.8645L71.1959 25.4822C71.7577 26.2636 72.0703 26.6945 72.1336 26.7494C72.2265 26.9057 72.1801 26.9901 71.99 27.007H68.6109C68.4823 27.0155 68.3538 26.9894 68.2387 26.9315C68.1236 26.8736 68.026 26.7859 67.9562 26.6776C67.5338 26.0975 66.4159 24.5825 64.6025 22.1327L64.5729 22.8085V26.61C64.5878 26.7331 64.5718 26.8579 64.5265 26.9732C64.4969 27.0113 64.3786 27.0324 64.1759 27.0324H61.4304C61.2276 27.0324 61.1094 27.0324 61.0671 26.9606C61.0164 26.8437 60.9974 26.7154 61.0122 26.5889V16.1137ZM67.5043 19.3492C67.5979 19.3148 67.6803 19.2552 67.7421 19.1769C67.804 19.0986 67.843 19.0048 67.8549 18.9057C67.8667 18.8044 67.8461 18.702 67.796 18.6132C67.7459 18.5244 67.6689 18.4537 67.5761 18.4115L67.3184 18.3186C66.4935 18.1493 65.6503 18.0868 64.8095 18.1327C64.6532 18.1327 64.5729 18.2172 64.5729 18.3904V19.3281C64.5729 19.4675 64.6616 19.5393 64.8306 19.5393C65.6753 19.5393 66.4272 19.5055 67.0819 19.4463C67.2276 19.4413 67.371 19.4083 67.5043 19.3492Z"
      fill="white"
    />
    <path
      d="M77.0711 26.758C75.038 26.2314 73.7483 25.091 73.202 23.3367C72.7269 21.8503 72.7269 20.2528 73.202 18.7665C73.4153 18.1383 73.7594 17.5624 74.2115 17.0769C74.8588 16.3862 75.6526 15.8493 76.5346 15.5057C76.75 15.4296 77.2991 15.2945 78.1735 15.1086C79.0965 14.9575 80.0359 14.9334 80.9654 15.0368C82.2861 15.1073 83.5605 15.5462 84.6444 16.304C85.2065 16.7025 85.6814 17.2114 86.0402 17.7997C86.399 18.3879 86.634 19.0431 86.731 19.7253C86.833 20.369 86.8642 21.022 86.8239 21.6725C86.7811 22.9978 86.2761 24.2664 85.3963 25.2585C84.9136 25.758 84.3306 26.1496 83.6856 26.4074C82.4442 26.8812 81.1185 27.094 79.7912 27.0326C78.8754 27.1023 77.9545 27.0094 77.0711 26.758ZM81.0077 23.9703C81.3685 23.923 81.7119 23.7867 82.0068 23.5736C82.3018 23.3605 82.539 23.0773 82.6972 22.7496C83.1184 21.8368 83.1773 20.7981 82.862 19.8436C82.7348 19.387 82.4794 18.9764 82.126 18.6605C81.7727 18.3446 81.3362 18.1366 80.8683 18.0611C80.1064 17.8809 79.3094 17.916 78.5663 18.1625C78.2565 18.24 77.9667 18.3825 77.7162 18.5805C77.4656 18.7786 77.2601 19.0278 77.1133 19.3114C76.88 19.7852 76.7435 20.3008 76.7116 20.828C76.6797 21.3553 76.7531 21.8835 76.9274 22.3821C77.0415 22.8044 77.278 23.1834 77.6073 23.4713C77.9366 23.7593 78.3438 23.9432 78.7775 23.9998C79.1418 24.0643 79.5102 24.1038 79.8799 24.1181C80.2594 24.1012 80.6367 24.0518 81.0077 23.9703Z"
      fill="white"
    />
    <path
      d="M96.4719 26.876L94.0094 23.8518L91.6609 26.7831C91.6264 26.8304 91.5803 26.8681 91.5271 26.8925C91.4738 26.9169 91.4152 26.9273 91.3568 26.9225H87.8595C87.7868 26.9255 87.7148 26.9071 87.6525 26.8695C87.5902 26.832 87.5403 26.777 87.5089 26.7113C87.4773 26.6506 87.4669 26.5812 87.4791 26.5139C87.4913 26.4466 87.5256 26.3853 87.5765 26.3396L91.8003 21.1105L87.6018 15.9278C87.549 15.882 87.515 15.8182 87.5064 15.7488C87.4978 15.6793 87.5153 15.6092 87.5554 15.5519C87.5808 15.4819 87.6295 15.4227 87.6933 15.3842C87.7571 15.3458 87.8322 15.3304 87.9059 15.3407H91.3991C91.4569 15.3425 91.5137 15.3562 91.566 15.3809C91.6183 15.4056 91.665 15.4408 91.7032 15.4843L94.0263 18.365L96.4423 15.4083C96.4766 15.3606 96.5226 15.3227 96.5759 15.2983C96.6293 15.2739 96.688 15.2637 96.7464 15.2689H100.24C100.312 15.2665 100.384 15.2851 100.446 15.3226C100.508 15.3601 100.558 15.4148 100.59 15.4801C100.63 15.5374 100.648 15.6075 100.639 15.677C100.631 15.7464 100.597 15.8102 100.544 15.856L96.2607 21.1189L100.552 26.4156C100.596 26.4716 100.624 26.5388 100.632 26.6097C100.641 26.6806 100.629 26.7523 100.599 26.8169C100.569 26.8847 100.519 26.9416 100.455 26.9794C100.391 27.0173 100.318 27.0343 100.244 27.0281H96.776C96.7164 27.0319 96.6569 27.0198 96.6034 26.9931C96.55 26.9664 96.5046 26.926 96.4719 26.876Z"
      fill="white"
    />
    <path
      d="M107.053 26.4071L102.761 21.1188L107.032 15.8432C107.083 15.7963 107.116 15.7323 107.123 15.6632C107.131 15.5941 107.113 15.5244 107.074 15.4673C107.042 15.402 106.992 15.3473 106.93 15.3098C106.868 15.2723 106.796 15.2537 106.723 15.2561H103.23C103.171 15.2505 103.112 15.2609 103.058 15.2862C103.005 15.3115 102.959 15.3507 102.926 15.3997L98.2966 21.1188L102.972 26.8928C103.006 26.9412 103.052 26.98 103.105 27.0052C103.159 27.0304 103.218 27.0411 103.277 27.0364H106.744C106.819 27.0423 106.893 27.0247 106.957 26.986C107.02 26.9474 107.07 26.8896 107.099 26.821C107.134 26.7554 107.149 26.6807 107.14 26.6068C107.132 26.5329 107.101 26.4633 107.053 26.4071Z"
      fill="white"
    />
    <path
      d="M113.126 26.9693V18.5005C113.147 18.3513 113.137 18.1995 113.097 18.0542C113.057 17.909 112.988 17.7734 112.894 17.6557C112.781 17.5633 112.651 17.4948 112.511 17.4541C112.37 17.4135 112.224 17.4016 112.079 17.4192H108.843V15.2861H120.138V17.4319H116.695C116.585 17.4235 116.474 17.4384 116.37 17.4758C116.266 17.5131 116.171 17.5719 116.092 17.6485C116.012 17.725 115.949 17.8175 115.908 17.9199C115.866 18.0224 115.847 18.1324 115.851 18.2428V26.9693H113.118H113.126Z"
      fill="white"
    />
    <path
      d="M130.993 26.9699C130.946 26.877 130.887 26.7376 130.816 26.5475C130.744 26.3574 130.655 26.1251 130.604 26.0153C130.529 25.8322 130.399 25.6761 130.234 25.5676C130.068 25.4591 129.873 25.4031 129.675 25.4071H124.712C124.506 25.4032 124.303 25.4638 124.133 25.5804C123.963 25.697 123.833 25.8638 123.762 26.0576C123.719 26.142 123.656 26.2899 123.563 26.5053L123.369 26.9699H120.353L121.156 25.2043L122.537 22.2012L123.952 19.1304C124.176 18.6278 124.492 17.9351 124.911 17.0396L125.713 15.329L125.772 15.2952C125.793 15.2952 125.844 15.2952 125.933 15.2952H128.83C128.953 15.2952 129.016 15.3163 129.084 15.4895L131.17 20.3553C131.31 20.6848 132.015 22.3448 133.248 25.1536C133.346 25.3944 133.51 25.783 133.734 26.2983L134.038 26.9784L130.993 26.9699ZM127.221 19.2276C127.088 19.2331 126.959 19.2755 126.848 19.3501C126.738 19.4246 126.651 19.5285 126.596 19.65L126.571 19.688V19.7302L126.203 20.575C126.038 20.9594 125.937 21.1959 125.903 21.2804L125.371 22.4926C125.307 22.6164 125.276 22.7548 125.282 22.8942C125.288 23.0335 125.33 23.1688 125.405 23.2867C125.48 23.3952 125.583 23.4825 125.702 23.5402C125.821 23.5979 125.953 23.624 126.085 23.6162H128.264C128.397 23.6311 128.531 23.6193 128.658 23.5816C128.786 23.5438 128.905 23.4809 129.008 23.3965C129.114 23.2659 129.179 23.1063 129.194 22.9385C129.209 22.7706 129.174 22.6021 129.092 22.4546C128.949 22.0702 128.72 21.5169 128.416 20.8073L128.171 20.2751L127.914 19.6669L127.884 19.6204C127.774 19.464 127.62 19.3447 127.441 19.2783L127.335 19.236L127.221 19.2276Z"
      fill="white"
    />
    <path
      d="M135.758 26.9693V15.2861H138.491V23.755C138.479 23.9923 138.493 24.2303 138.533 24.4646L138.558 24.5617L138.613 24.642C138.82 24.9588 139.205 24.9799 139.767 24.9799H145.87H145.976V26.9609L135.758 26.9693Z"
      fill="white"
    />
    <path
      d="M147.69 26.9693V15.2861H158.503C158.503 16.0042 158.503 16.7265 158.503 17.4319H151.162C151.063 17.4267 150.964 17.4418 150.871 17.4762C150.778 17.5107 150.694 17.5637 150.622 17.6322C150.55 17.7006 150.493 17.783 150.455 17.8742C150.416 17.9654 150.397 18.0635 150.397 18.1626C150.414 18.4946 150.414 18.8273 150.397 19.1594C150.391 19.2627 150.406 19.3662 150.442 19.4633C150.478 19.5603 150.533 19.6489 150.605 19.7232C150.677 19.7976 150.764 19.8561 150.86 19.895C150.956 19.9339 151.059 19.9524 151.162 19.9493H158.114V21.9894H150.423V23.341C150.423 23.6789 150.423 23.9408 150.402 24.1098C150.387 24.2186 150.396 24.3293 150.428 24.4343C150.46 24.5392 150.514 24.6361 150.588 24.718C150.659 24.7965 150.746 24.8598 150.842 24.9041C150.939 24.9483 151.043 24.9727 151.149 24.9757C151.298 24.9945 151.447 25.003 151.597 25.001H158.82V26.9651L147.69 26.9693Z"
      fill="white"
    />
    <path
      d="M169.261 26.9696C167.775 24.8576 166.968 23.7383 166.812 23.5145C166.355 22.902 165.544 21.732 164.324 20.0255L163.263 18.5176V26.9653H160.51V15.2864H163.825C163.877 15.2788 163.93 15.2859 163.977 15.3068C164.025 15.3277 164.066 15.3616 164.096 15.4047C164.518 16.0213 165.32 17.1576 166.482 18.7837C167.011 19.5131 167.617 20.3578 168.298 21.318C169.046 22.374 169.603 23.1723 169.958 23.6961L171.023 25.2674V23.6538L171.073 23.5989L171.099 23.3328V15.3075H173.827V26.9696H169.261Z"
      fill="white"
    />
    <path
      d="M178.984 26.9693V18.5005C179.006 18.3513 178.996 18.1992 178.956 18.0538C178.916 17.9085 178.847 17.7729 178.752 17.6557C178.64 17.5632 178.51 17.4946 178.371 17.4539C178.231 17.4132 178.085 17.4014 177.941 17.4192H174.701V15.2861H186V17.4319H182.558C182.447 17.4241 182.337 17.4396 182.233 17.4771C182.13 17.5147 182.035 17.5736 181.955 17.65C181.876 17.7264 181.813 17.8186 181.771 17.9207C181.729 18.0228 181.71 18.1326 181.713 18.2428V26.9693H178.98H178.984Z"
      fill="white"
    />
  </svg>
