<svg
  width="20"
  height="20"
  viewBox="0 0 20 20"
  fill="none"
  xmlns="http://www.w3.org/2000/svg"
>
    <path
      d="M10.0001 0.246826C4.47791 0.246826 0 4.72391 0 10.2469C0 14.6652 2.86533 18.4137 6.83867 19.736C7.33844 19.8285 7.52192 19.519 7.52192 19.2549C7.52192 19.0164 7.51265 18.2287 7.50834 17.3931C4.72631 17.998 4.13927 16.2132 4.13927 16.2132C3.68437 15.0573 3.02894 14.75 3.02894 14.75C2.12163 14.1293 3.09733 14.1421 3.09733 14.1421C4.10151 14.2126 4.63026 15.1726 4.63026 15.1726C5.52217 16.7014 6.96965 16.2594 7.5403 16.0039C7.63006 15.3576 7.88922 14.9164 8.1752 14.6667C5.95405 14.4138 3.61913 13.5564 3.61913 9.72462C3.61913 8.63283 4.00977 7.74076 4.64947 7.04045C4.54564 6.78858 4.20335 5.77148 4.74635 4.39404C4.74635 4.39404 5.58609 4.12528 7.49708 5.41909C8.29476 5.19752 9.15024 5.0864 10.0001 5.08259C10.8499 5.0864 11.7061 5.19752 12.5052 5.41909C14.4139 4.12528 15.2525 4.39404 15.2525 4.39404C15.7968 5.77148 15.4544 6.78858 15.3505 7.04045C15.9917 7.74076 16.3797 8.63283 16.3797 9.72462C16.3797 13.5655 14.0403 14.4112 11.8135 14.6587C12.1722 14.9691 12.4918 15.5776 12.4918 16.5106C12.4918 17.8486 12.4802 18.9255 12.4802 19.2549C12.4802 19.521 12.6602 19.8328 13.1671 19.7346C17.1383 18.4109 20 14.6637 20 10.2469C20 4.72391 15.5227 0.246826 10.0001 0.246826ZM3.74536 14.4922C3.72333 14.5418 3.64517 14.5567 3.57396 14.5226C3.50143 14.49 3.46069 14.4223 3.48421 14.3724C3.50574 14.3213 3.58406 14.307 3.65643 14.3413C3.72913 14.3739 3.77053 14.4423 3.74536 14.4922ZM4.23725 14.9311C4.18956 14.9753 4.09633 14.9547 4.03307 14.8849C3.96766 14.8151 3.9554 14.7219 4.00376 14.677C4.05294 14.6328 4.14336 14.6535 4.20893 14.7232C4.27434 14.7938 4.28709 14.8864 4.23725 14.9311ZM4.57471 15.4926C4.51344 15.5352 4.41325 15.4953 4.35132 15.4064C4.29004 15.3174 4.29004 15.2108 4.35264 15.1681C4.41474 15.1253 4.51344 15.1638 4.5762 15.252C4.6373 15.3424 4.6373 15.4491 4.57471 15.4926ZM5.14542 16.143C5.09061 16.2035 4.97386 16.1872 4.88841 16.1048C4.80098 16.0241 4.77663 15.9097 4.83161 15.8492C4.88709 15.7886 5.0045 15.8057 5.09061 15.8875C5.17738 15.968 5.20387 16.0832 5.14542 16.143ZM5.88301 16.3626C5.85883 16.4409 5.74639 16.4765 5.63312 16.4432C5.52002 16.4089 5.446 16.3172 5.46885 16.238C5.49237 16.1592 5.6053 16.1221 5.7194 16.1577C5.83234 16.1918 5.90652 16.2829 5.88301 16.3626ZM6.72242 16.4557C6.72523 16.5382 6.62919 16.6066 6.51029 16.6081C6.39073 16.6107 6.29402 16.544 6.29269 16.4628C6.29269 16.3795 6.38659 16.3118 6.50615 16.3098C6.62505 16.3075 6.72242 16.3737 6.72242 16.4557ZM7.54704 16.4241C7.56128 16.5046 7.47865 16.5872 7.36058 16.6092C7.2445 16.6304 7.13702 16.5807 7.12229 16.5009C7.10788 16.4185 7.192 16.3358 7.30792 16.3145C7.42616 16.2939 7.53197 16.3423 7.54704 16.4241Z"
      fill="#161614"
    />
  </svg>
