<svg width="20" height="18" viewBox="0 0 20 18" fill="none" xmlns="http://www.w3.org/2000/svg">
<g clip-path="url(#clip0_2992_739)">
<path d="M19.0181 16.3513C19.061 16.3517 19.1036 16.3434 19.1431 16.3269C19.1827 16.3103 19.2183 16.2859 19.2479 16.2552C19.2776 16.2244 19.3005 16.188 19.3153 16.1481C19.3301 16.1082 19.3364 16.0657 19.3339 16.0233C19.3339 15.7907 19.1922 15.6796 18.9014 15.6796H18.4316V16.8974H18.6083V16.3665H18.8255L18.8305 16.373L19.1674 16.8974H19.3564L18.9938 16.3546L19.0181 16.3513ZM18.8138 16.2293H18.6089V15.8176H18.8686C19.0027 15.8176 19.1557 15.8393 19.1557 16.0132C19.1557 16.2133 19.0009 16.2293 18.8127 16.2293" fill="#0A66C2"/>
<path d="M14.4093 14.8238H11.9036V10.9383C11.9036 10.0118 11.8869 8.81908 10.6003 8.81908C9.29526 8.81908 9.09558 9.82856 9.09558 10.8709V14.8235H6.58983V6.83346H8.99534V7.92538H9.02902C9.26975 7.51783 9.61762 7.18255 10.0356 6.95527C10.4535 6.72798 10.9259 6.6172 11.4024 6.63471C13.9421 6.63471 14.4104 8.28875 14.4104 10.4406L14.4093 14.8238ZM3.76252 5.74127C3.47493 5.74132 3.19377 5.65693 2.95461 5.49877C2.71545 5.3406 2.52905 5.11577 2.41894 4.8527C2.30884 4.58963 2.27998 4.30015 2.33604 4.02084C2.39209 3.74154 2.53054 3.48497 2.73387 3.28358C2.93719 3.08218 3.19627 2.94501 3.47833 2.8894C3.76039 2.8338 4.05276 2.86226 4.31849 2.97119C4.58421 3.08011 4.81134 3.26461 4.97117 3.50136C5.13099 3.7381 5.21633 4.01646 5.21638 4.30122C5.21641 4.4903 5.17883 4.67753 5.10578 4.85223C5.03274 5.02692 4.92567 5.18566 4.79067 5.31938C4.65566 5.4531 4.49537 5.55919 4.31896 5.63157C4.14256 5.70396 3.95348 5.74124 3.76252 5.74127ZM5.01539 14.8238H2.50704V6.83346H5.01539V14.8238ZM15.6585 0.557659H1.24791C0.920833 0.554005 0.605652 0.679075 0.371656 0.905387C0.13766 1.1317 0.00399184 1.44074 0 1.76459V16.0925C0.00385521 16.4165 0.137445 16.7257 0.371433 16.9523C0.605421 17.1788 0.920671 17.3041 1.24791 17.3007H15.6585C15.9864 17.3048 16.3026 17.1798 16.5375 16.9533C16.7724 16.7267 16.9069 16.4171 16.9114 16.0925V1.76356C16.9067 1.43906 16.7721 1.12967 16.5372 0.903365C16.3023 0.677059 15.9863 0.552345 15.6585 0.556625" fill="#0A66C2"/>
<path d="M18.8356 15.1365C18.5307 15.1394 18.2394 15.2618 18.0254 15.4768C17.8114 15.6917 17.692 15.9819 17.6935 16.2838C17.695 16.5857 17.8171 16.8747 18.0332 17.0876C18.2493 17.3005 18.5418 17.4201 18.8467 17.4201C19.1515 17.4201 19.444 17.3005 19.6601 17.0876C19.8762 16.8747 19.9983 16.5857 19.9998 16.2838C20.0013 15.9819 19.8819 15.6917 19.6679 15.4768C19.4539 15.2618 19.1626 15.1394 18.8577 15.1365H18.8356ZM18.8356 17.2894C18.6356 17.2927 18.4391 17.2372 18.271 17.1299C18.1029 17.0227 17.9707 16.8685 17.8911 16.6868C17.8115 16.5051 17.7881 16.3042 17.8238 16.1093C17.8596 15.9145 17.9529 15.7346 18.0919 15.5922C18.231 15.4499 18.4095 15.3516 18.605 15.3097C18.8004 15.2679 19.0041 15.2843 19.1901 15.3571C19.3761 15.4298 19.5362 15.5555 19.65 15.7183C19.7639 15.8811 19.8264 16.0736 19.8298 16.2716C19.8298 16.2773 19.8298 16.2827 19.8298 16.2884C19.8354 16.5482 19.7365 16.7995 19.555 16.9871C19.3735 17.1747 19.1242 17.2832 18.8619 17.2889H18.8358" fill="#0A66C2"/>
</g>
<defs>
<clipPath id="clip0_2992_739">
<rect width="20" height="16.8831" fill="white" transform="translate(0 0.558472)"/>
</clipPath>
</defs>
</svg>
